<?xml version="1.0" encoding="UTF-8"?>
<svg id="Layer_2" data-name="Layer 2" xmlns="http://www.w3.org/2000/svg"
     viewBox="0 0 299.25 308.25">
  <defs>
    <style>
      .cls-1, .cls-2, .cls-3, .cls-4, .cls-5 {
        fill: #fff;
      }

      .cls-2 {
        font-size: 13px;
      }

      .cls-2, .cls-4, .cls-5 {
        font-family: CooperHewitt-Book, 'Cooper Hewitt';
      }

      .cls-3 {
        font-family: BodoniFLF-Bold, BodoniFLF;
        font-size: 16.58px;
        font-weight: 700;
      }

      .cls-6, .cls-7 {
        fill: none;
      }

      .cls-7 {
        clip-path: url(#clippath);
      }

      .cls-4 {
        font-size: 13px;
      }

      .cls-5 {
        font-size: 13px;
      }
    </style>
    <clipPath id="clippath">
      <rect class="cls-6" width="299.25" height="308.25"/>
    </clipPath>
  </defs>
  <g id="Layer_1-2" data-name="Layer 1">
    <text class="cls-5" transform="translate(51.99 198.37) rotate(-112.38)">
      <tspan x="0" y="0">O</tspan>
    </text>
    <text class="cls-2" transform="translate(48.7 190.36) rotate(-107.41)">
      <tspan x="0" y="0">N</tspan>
    </text>
    <text class="cls-2" transform="translate(46.15 181.89) rotate(-104.07)">
      <tspan x="0" y="0"></tspan>
    </text>
    <text class="cls-2" transform="translate(45.39 179.11) rotate(-100.9)">
      <tspan x="0" y="0">A</tspan>
    </text>
    <text class="cls-5" transform="translate(43.84 171.09) rotate(-96.07)">
      <tspan x="0" y="0">N</tspan>
    </text>
    <text class="cls-5" transform="translate(42.93 162.34) rotate(-91.24)">
      <tspan x="0" y="0">A</tspan>
    </text>
    <text class="cls-5" transform="translate(42.79 154.16) rotate(-87.02)">
      <tspan x="0" y="0">L</tspan>
    </text>
    <text class="cls-2" transform="translate(43.12 147.53) rotate(-82.92)">
      <tspan x="0" y="0">Y</tspan>
    </text>
    <text class="cls-2" transform="translate(44.1 139.85) rotate(-78.73)">
      <tspan x="0" y="0">T</tspan>
    </text>
    <text class="cls-5" transform="translate(45.52 133.01) rotate(-75.81)">
      <tspan x="0" y="0">I</tspan>
    </text>
    <text class="cls-2" transform="translate(46.26 129.82) rotate(-72.51)">
      <tspan x="0" y="0">C</tspan>
    </text>
    <text class="cls-2" transform="translate(48.84 121.92) rotate(-69.32)">
      <tspan x="0" y="0"></tspan>
    </text>
    <text class="cls-5" transform="translate(49.79 119.2) rotate(-66.16)">
      <tspan x="0" y="0">V</tspan>
    </text>
    <text class="cls-2" transform="translate(53.12 111.72) rotate(-61.72)">
      <tspan x="0" y="0">E</tspan>
    </text>
    <text class="cls-2" transform="translate(56.62 105.22) rotate(-57.39)">
      <tspan x="0" y="0">R</tspan>
    </text>
    <text class="cls-2" transform="translate(60.85 98.63) rotate(-52.92)">
      <tspan x="0" y="0">B</tspan>
    </text>
    <text class="cls-5" transform="translate(65.59 92.37) rotate(-48.39)">
      <tspan x="0" y="0">S</tspan>
    </text>
    <text class="cls-2" transform="translate(71.02 86.37) rotate(-45.2)">
      <tspan x="0" y="0">,</tspan>
    </text>
    <text class="cls-2" transform="translate(73.24 84.15) rotate(-43.48)">
      <tspan x="0" y="0"></tspan>
    </text>
    <text class="cls-2" transform="translate(75.28 82.12) rotate(-40.29)">
      <tspan x="0" y="0">C</tspan>
    </text>
    <text class="cls-5" transform="translate(81.58 76.77) rotate(-35.46)">
      <tspan x="0" y="0">O</tspan>
    </text>
    <text class="cls-5" transform="translate(88.6 71.73) rotate(-29.97)">
      <tspan x="0" y="0">M</tspan>
    </text>
    <text class="cls-5" transform="translate(97.87 66.47) rotate(-24.75)">
      <tspan x="0" y="0">P</tspan>
    </text>
    <text class="cls-2" transform="translate(104.87 63.27) rotate(-20.67)">
      <tspan x="0" y="0">L</tspan>
    </text>
    <text class="cls-4" transform="translate(111.08 60.93) rotate(-16.67)">
      <tspan x="0" y="0">E</tspan>
    </text>
    <text class="cls-5" transform="translate(118.15 58.8) rotate(-12.23)">
      <tspan x="0" y="0">X</tspan>
    </text>
    <text class="cls-2" transform="translate(126.22 57.14) rotate(-8.95)">
      <tspan x="0" y="0">I</tspan>
    </text>
    <text class="cls-2" transform="translate(129.45 56.59) rotate(-6.03)">
      <tspan x="0" y="0">T</tspan>
    </text>
    <text class="cls-5" transform="translate(136.36 55.85) rotate(-1.84)">
      <tspan x="0" y="0">Y</tspan>
    </text>
    <text class="cls-2" transform="translate(144.14 55.67) rotate(1.25)">
      <tspan x="0" y="0">,</tspan>
    </text>
    <text class="cls-2" transform="translate(147.28 55.74) rotate(2.98)">
      <tspan x="0" y="0"></tspan>
    </text>
    <text class="cls-2" transform="translate(150.16 55.83) rotate(6.11)">
      <tspan x="0" y="0">S</tspan>
    </text>
    <text class="cls-2" transform="translate(158.17 56.7) rotate(10.61)">
      <tspan x="0" y="0">Y</tspan>
    </text>
    <text class="cls-2" transform="translate(165.77 58.11) rotate(15.32)">
      <tspan x="0" y="0">N</tspan>
    </text>
    <text class="cls-2" transform="translate(174.25 60.49) rotate(19.8)">
      <tspan x="0" y="0">T</tspan>
    </text>
    <text class="cls-5" transform="translate(180.78 62.81) rotate(24.21)">
      <tspan x="0" y="0">H</tspan>
    </text>
    <text class="cls-2" transform="translate(188.56 66.35) rotate(28.75)">
      <tspan x="0" y="0">E</tspan>
    </text>
    <text class="cls-5" transform="translate(195.03 69.91) rotate(32.83)">
      <tspan x="0" y="0">T</tspan>
    </text>
    <text class="cls-2" transform="translate(200.87 73.75) rotate(35.75)">
      <tspan x="0" y="0">I</tspan>
    </text>
    <text class="cls-5" transform="translate(203.56 75.6) rotate(39.05)">
      <tspan x="0" y="0">C</tspan>
    </text>
    <text class="cls-5" transform="translate(209.96 80.91) rotate(42.24)">
      <tspan x="0" y="0"></tspan>
    </text>
    <text class="cls-5" transform="translate(212.14 82.8) rotate(45.41)">
      <tspan x="0" y="0">V</tspan>
    </text>
    <text class="cls-2" transform="translate(217.87 88.64) rotate(49.84)">
      <tspan x="0" y="0">E</tspan>
    </text>
    <text class="cls-5" transform="translate(222.62 94.28) rotate(54.17)">
      <tspan x="0" y="0">R</tspan>
    </text>
    <text class="cls-2" transform="translate(227.2 100.63) rotate(58.64)">
      <tspan x="0" y="0">B</tspan>
    </text>
    <text class="cls-2" transform="translate(231.29 107.34) rotate(63.17)">
      <tspan x="0" y="0">S</tspan>
    </text>
    <text class="cls-5" transform="translate(234.87 114.6) rotate(66.36)">
      <tspan x="0" y="0">,</tspan>
    </text>
    <text class="cls-2" transform="translate(236.12 117.48) rotate(68.09)">
      <tspan x="0" y="0"></tspan>
    </text>
    <text class="cls-2" transform="translate(237.26 120.13) rotate(71.25)">
      <tspan x="0" y="0">A</tspan>
    </text>
    <text class="cls-2" transform="translate(239.89 127.86) rotate(76.08)">
      <tspan x="0" y="0">N</tspan>
    </text>
    <text class="cls-5" transform="translate(241.99 136.4) rotate(81.02)">
      <tspan x="0" y="0">D</tspan>
    </text>
    <text class="cls-2" transform="translate(243.24 144.89) rotate(84.28)">
      <tspan x="0" y="0"></tspan>
    </text>
    <text class="cls-2" transform="translate(243.59 147.76) rotate(87.41)">
      <tspan x="0" y="0">S</tspan>
    </text>
    <text class="cls-2" transform="translate(243.88 155.84) rotate(90.65)">
      <tspan x="0" y="0">I</tspan>
    </text>
    <text class="cls-2" transform="translate(243.96 159.09) rotate(94.62)">
      <tspan x="0" y="0">M</tspan>
    </text>
    <text class="cls-2" transform="translate(243.03 169.7) rotate(99.84)">
      <tspan x="0" y="0">P</tspan>
    </text>
    <text class="cls-2" transform="translate(241.69 177.28) rotate(103.92)">
      <tspan x="0" y="0">L</tspan>
    </text>
    <text class="cls-2" transform="translate(240.04 183.75) rotate(106.76)">
      <tspan x="0" y="0">I</tspan>
    </text>
    <text class="cls-5" transform="translate(239.12 186.9) rotate(109.67)">
      <tspan x="0" y="0">F</tspan>
    </text>
    <text class="cls-2" transform="translate(236.73 193.44) rotate(112.59)">
      <tspan x="0" y="0">I</tspan>
    </text>
    <text class="cls-5" transform="translate(235.53 196.48) rotate(115.89)">
      <tspan x="0" y="0">C</tspan>
    </text>
    <text class="cls-5" transform="translate(231.91 203.91) rotate(120.57)">
      <tspan x="0" y="0">A</tspan>
    </text>
    <text class="cls-2" transform="translate(227.72 210.94) rotate(124.88)">
      <tspan x="0" y="0">T</tspan>
    </text>
    <text class="cls-2" transform="translate(223.69 216.64) rotate(127.81)">
      <tspan x="0" y="0">I</tspan>
    </text>
    <text class="cls-2" transform="translate(221.74 219.26) rotate(131.22)">
      <tspan x="0" y="0">O</tspan>
    </text>
    <text class="cls-2" transform="translate(216.03 225.77) rotate(136.19)">
      <tspan x="0" y="0">N</tspan>
    </text>
    <text class="cls-2" transform="translate(209.59 231.82) rotate(139.58)">
      <tspan x="0" y="0">.</tspan>
    </text>
    <text class="cls-4" transform="translate(207.19 233.85) rotate(141.31)">
      <tspan x="0" y="0"></tspan>
    </text>
    <text class="cls-5" transform="translate(204.9 235.68) rotate(142.99)">
      <tspan x="0" y="0"></tspan>
    </text>
    <text class="cls-2" transform="translate(202.61 237.46) rotate(145.79)">
      <tspan x="0" y="0">F</tspan>
    </text>
    <text class="cls-5" transform="translate(196.91 241.36) rotate(150.23)">
      <tspan x="0" y="0">O</tspan>
    </text>
    <text class="cls-2" transform="translate(189.38 245.65) rotate(154.93)">
      <tspan x="0" y="0">R</tspan>
    </text>
    <text class="cls-5" transform="translate(182.21 248.91) rotate(158)">
      <tspan x="0" y="0"></tspan>
    </text>
    <text class="cls-2" transform="translate(179.56 250.06) rotate(161.16)">
      <tspan x="0" y="0">A</tspan>
    </text>
    <text class="cls-2" transform="translate(171.83 252.69) rotate(165.84)">
      <tspan x="0" y="0">C</tspan>
    </text>
    <text class="cls-2" transform="translate(163.81 254.7) rotate(170.55)">
      <tspan x="0" y="0">C</tspan>
    </text>
    <text class="cls-5" transform="translate(155.64 256.03) rotate(175.01)">
      <tspan x="0" y="0">E</tspan>
    </text>
    <text class="cls-2" transform="translate(148.3 256.68) rotate(179.41)">
      <tspan x="0" y="0">S</tspan>
    </text>
    <text class="cls-2" transform="translate(140.25 256.75) rotate(-176.01)">
      <tspan x="0" y="0">S</tspan>
    </text>
    <text class="cls-5" transform="translate(132.19 256.12) rotate(-172.77)">
      <tspan x="0" y="0">I</tspan>
    </text>
    <text class="cls-2" transform="translate(128.92 255.76) rotate(-169.59)">
      <tspan x="0" y="0">B</tspan>
    </text>
    <text class="cls-2" transform="translate(121.18 254.26) rotate(-166.41)">
      <tspan x="0" y="0">I</tspan>
    </text>
    <text class="cls-2" transform="translate(117.97 253.52) rotate(-163.57)">
      <tspan x="0" y="0">L</tspan>
    </text>
    <text class="cls-2" transform="translate(111.59 251.59) rotate(-160.73)">
      <tspan x="0" y="0">I</tspan>
    </text>
    <text class="cls-2" transform="translate(108.48 250.55) rotate(-157.81)">
      <tspan x="0" y="0">T</tspan>
    </text>
    <text class="cls-2" transform="translate(102.04 247.92) rotate(-153.62)">
      <tspan x="0" y="0">Y</tspan>
    </text>
    <rect class="cls-6" width="273.96" height="292.91"/>
    <g class="cls-7">
      <path class="cls-1"
            d="m13.97,190.19c-.47,0-.9-.32-1.02-.79-6.02-23.37-5.96-48.05.17-71.39,6.32-24.04,19.01-46.1,36.69-63.78,17.68-17.68,39.73-30.37,63.78-36.69,23.34-6.14,48.02-6.2,71.39-.17.56.14.9.72.76,1.28-.14.56-.72.9-1.28.76-47.49-12.24-98.51,1.67-133.14,36.31C16.67,90.36,2.75,141.38,14.99,188.87c.14.56-.19,1.14-.76,1.28-.09.02-.18.04-.26.04Z"/>
      <path class="cls-1"
            d="m133.48,2.59c-13.58,1.47-26.55,6.1-37.12,13.33-5.03,3.44-9.55,7.47-13.51,12.03,2.43-1.67,4.88-3.15,7.09-4.46,13.86-8.17,28.47-15.18,43.54-20.91Zm-56.62,32.5c-.24,0-.49-.08-.69-.25-.41-.35-.49-.95-.19-1.39.68-1,1.39-2,2.12-2.97,4.75-6.32,10.49-11.8,17.06-16.29C107.96,5.43,124.14.39,140.74,0c.51-.01.97.36,1.06.87.09.51-.2,1.01-.69,1.19-17.38,6.09-34.25,13.92-50.1,23.27-3.28,1.93-7.1,4.27-10.52,6.99-1.06.84-2.01,1.66-2.91,2.5-.2.19-.46.29-.72.29Z"/>
      <path class="cls-1"
            d="m114.2,26.24c11.67,0,23.36.71,34.93,2.14-12.69-5.04-26.32-7-39.06-5.53-5.97.69-11.91,2.16-17.53,4.33,2.81-.33,5.61-.5,8.32-.63,4.44-.2,8.88-.31,13.33-.31Zm-31.13,5.31c-.37,0-.73-.19-.92-.54-.29-.51-.11-1.15.4-1.44.44-.25.88-.49,1.32-.73.01,0,.02-.01.04-.02,7.93-4.25,16.89-7.04,25.92-8.08,15.41-1.77,32.07,1.33,46.93,8.73.46.23.69.77.54,1.26-.15.5-.65.8-1.17.73-18.2-2.72-36.77-3.67-55.17-2.81-5.28.25-10.89.67-16.19,2.09-.4.21-.8.43-1.19.65-.17.1-.34.14-.52.14Z"/>
      <path class="cls-1"
            d="m155.42,6.11c0,.42-.08.82-.24,1.21-.16.39-.39.73-.69,1.03-.3.3-.64.53-1.03.69-.39.16-.79.24-1.21.24s-.82-.08-1.21-.24-.73-.39-1.03-.69c-.3-.3-.53-.64-.69-1.03-.16-.39-.24-.79-.24-1.21s.08-.82.24-1.21c.16-.39.39-.73.69-1.03.3-.3.64-.53,1.03-.69s.79-.24,1.21-.24.82.08,1.21.24c.39.16.73.39,1.03.69.3.3.53.64.69,1.03.16.39.24.79.24,1.21Z"/>
      <path class="cls-1"
            d="m188.39,18.26c0,.42-.08.82-.24,1.21-.16.39-.39.73-.69,1.03s-.64.53-1.03.69c-.39.16-.79.24-1.21.24s-.82-.08-1.21-.24c-.39-.16-.73-.39-1.03-.69-.3-.3-.53-.64-.69-1.03-.16-.39-.24-.79-.24-1.21,0-.42.08-.82.24-1.21.16-.39.39-.73.69-1.03.3-.3.64-.53,1.03-.69.39-.16.79-.24,1.21-.24s.82.08,1.21.24c.39.16.73.39,1.03.69.3.3.53.64.69,1.03.16.39.24.79.24,1.21Z"/>
      <path class="cls-1"
            d="m173.46,28.71c0,.42-.08.82-.24,1.21s-.39.73-.69,1.03c-.3.3-.64.53-1.03.69-.39.16-.79.24-1.21.24s-.82-.08-1.21-.24c-.39-.16-.73-.39-1.03-.69s-.53-.64-.69-1.03c-.16-.39-.24-.79-.24-1.21,0-.42.08-.82.24-1.21.16-.39.39-.73.69-1.03.3-.3.64-.53,1.03-.69.39-.16.79-.24,1.21-.24s.82.08,1.21.24.73.39,1.03.69.53.64.69,1.03c.16.39.24.79.24,1.21Z"/>
      <path class="cls-1"
            d="m25.17,211.84c0,.42-.08.82-.24,1.21-.16.39-.39.73-.69,1.03s-.64.53-1.03.69c-.39.16-.79.24-1.21.24s-.82-.08-1.21-.24c-.39-.16-.73-.39-1.03-.69-.3-.3-.53-.64-.69-1.03-.16-.39-.24-.79-.24-1.21s.08-.82.24-1.21c.16-.39.39-.73.69-1.03.3-.3.64-.53,1.03-.69.39-.16.79-.24,1.21-.24s.82.08,1.21.24c.39.16.73.39,1.03.69.3.3.53.64.69,1.03.16.39.24.79.24,1.21Z"/>
      <path class="cls-1"
            d="m44.48,242.9c0,.42-.08.82-.24,1.21-.16.39-.39.73-.69,1.03s-.64.53-1.03.69c-.39.16-.79.24-1.21.24s-.82-.08-1.21-.24c-.39-.16-.73-.39-1.03-.69-.3-.3-.53-.64-.69-1.03-.16-.39-.24-.79-.24-1.21,0-.42.08-.82.24-1.21.16-.39.39-.73.69-1.03.3-.3.64-.53,1.03-.69.39-.16.79-.24,1.21-.24s.82.08,1.21.24c.39.16.73.39,1.03.69s.53.64.69,1.03c.16.39.24.79.24,1.21Z"/>
      <path class="cls-1"
            d="m71.18,267.9c0,.42-.08.82-.24,1.21-.16.39-.39.73-.69,1.03-.3.3-.64.53-1.03.69s-.79.24-1.21.24-.82-.08-1.21-.24-.73-.39-1.03-.69c-.3-.3-.53-.64-.69-1.03-.16-.39-.24-.79-.24-1.21,0-.42.08-.82.24-1.21.16-.39.39-.73.69-1.03.3-.3.64-.53,1.03-.69.39-.16.79-.24,1.21-.24s.82.08,1.21.24c.39.16.73.39,1.03.69s.53.64.69,1.03c.16.39.24.79.24,1.21Z"/>
      <path class="cls-1"
            d="m89.08,28.54c-.37,0-.73-.19-.92-.54-.29-.51-.1-1.15.4-1.44,24.55-13.76,64.04-21.66,64.44-21.74.57-.11,1.13.26,1.24.83.11.57-.26,1.13-.83,1.24-.39.08-39.55,7.92-63.81,21.51-.16.09-.34.13-.51.13Z"/>
      <path class="cls-1"
            d="m59.92,30.95c-11.03,8.06-19.94,18.55-25.48,30.11-2.64,5.49-4.54,11.25-5.68,17.17,1.27-2.66,2.65-5.17,3.91-7.41,7.92-14.01,17.06-27.39,27.25-39.88Zm-33.31,56.59c-.06,0-.13,0-.19-.02-.53-.1-.9-.58-.86-1.11.08-1.21.2-2.43.35-3.63.95-7.85,3.19-15.47,6.63-22.64,6.71-13.98,18.2-26.43,32.38-35.07.44-.27,1.02-.18,1.36.22.34.4.33.98,0,1.37-12.01,13.97-22.7,29.18-31.76,45.2-1.88,3.31-4.01,7.25-5.61,11.31-.5,1.26-.92,2.44-1.27,3.61-.14.45-.55.75-1.01.75Z"/>
      <path class="cls-1"
            d="m86.37,45.46c-13.51,1.98-26.29,7.1-36.59,14.74-4.83,3.58-9.24,7.83-13.01,12.52,2.27-1.69,4.61-3.24,6.9-4.71,13.54-8.69,27.88-16.26,42.71-22.55Zm-56.16,35.91c-.18,0-.37-.05-.54-.14-.5-.3-.67-.94-.38-1.45.25-.43.51-.86.78-1.29,0-.01.01-.02.02-.04,4.74-7.64,11.11-14.54,18.41-19.96,12.46-9.24,28.44-14.89,45.01-15.91.52-.03.98.32,1.09.82.11.51-.16,1.02-.64,1.21-17.13,6.74-33.67,15.21-49.18,25.15-4.45,2.85-9.1,6.03-12.97,9.91-.24.38-.47.77-.7,1.16-.2.34-.55.53-.91.53Z"/>
      <path class="cls-1"
            d="m81.11,24.61c0,.42-.08.82-.24,1.21-.16.39-.39.73-.69,1.03-.3.3-.64.53-1.03.69s-.79.24-1.21.24-.82-.08-1.21-.24c-.39-.16-.73-.39-1.03-.69-.3-.3-.53-.64-.69-1.03-.16-.39-.24-.79-.24-1.21,0-.42.08-.82.24-1.21.16-.39.39-.73.69-1.03.3-.3.64-.53,1.03-.69.39-.16.79-.24,1.21-.24s.82.08,1.21.24.73.39,1.03.69c.3.3.53.64.69,1.03.16.39.24.79.24,1.21Z"/>
      <path class="cls-1"
            d="m33.91,75.76c-.18,0-.37-.05-.54-.15-.5-.3-.67-.95-.37-1.45,14.39-24.19,44.63-50.78,44.93-51.04.44-.38,1.11-.34,1.49.1.38.44.34,1.11-.1,1.49-.3.26-30.3,26.63-44.51,50.53-.19.33-.55.52-.9.52Z"/>
      <path class="cls-1"
            d="m10.4,92.29c-5.52,12.5-7.99,26.04-7.02,38.82.46,6.07,1.69,12.01,3.67,17.71-.23-2.94-.29-5.8-.31-8.37-.15-16.09,1.08-32.25,3.66-48.16Zm-1.08,65.8c-.39,0-.77-.22-.95-.59-.53-1.09-1.04-2.2-1.51-3.32-3.1-7.28-4.98-14.99-5.58-22.92-1.18-15.46,2.55-32,10.51-46.56.25-.46.79-.66,1.28-.49.49.18.78.68.68,1.19-3.42,18.1-5.07,36.61-4.9,55.03.03,3.81.15,8.28.79,12.6.2,1.34.43,2.57.7,3.77.12.52-.17,1.05-.68,1.23-.12.04-.24.06-.35.06Z"/>
      <path class="cls-1"
            d="m40.56,91.63c-10.71,8.47-19.22,19.3-24.32,31.06-2.39,5.52-4.09,11.4-5.01,17.35,1.12-2.6,2.37-5.11,3.62-7.52,7.38-14.31,16.02-28.03,25.71-40.88Zm-31.2,59.32h0c-.58,0-1.05-.48-1.05-1.06,0-.5.01-1.01.03-1.51v-.04c.29-8.99,2.35-18.15,5.97-26.49,6.17-14.23,17.19-27.11,31.02-36.28.43-.29,1.01-.21,1.36.17.35.38.37.96.05,1.37-11.46,14.4-21.56,30-30.01,46.37-2.43,4.7-4.86,9.77-6.28,15.07-.01.45-.02.9-.03,1.36,0,.58-.47,1.05-1.05,1.05Z"/>
      <path class="cls-1"
            d="m25.99,77.79c0,.42-.08.82-.24,1.21-.16.39-.39.73-.69,1.03s-.64.53-1.03.69c-.39.16-.79.24-1.21.24s-.82-.08-1.21-.24c-.39-.16-.73-.39-1.03-.69s-.53-.64-.69-1.03-.24-.79-.24-1.21c0-.42.08-.82.24-1.21s.39-.73.69-1.03c.3-.3.64-.53,1.03-.69.39-.16.79-.24,1.21-.24s.82.08,1.21.24c.39.16.73.39,1.03.69.3.3.53.64.69,1.03.16.39.24.79.24,1.21Z"/>
      <path class="cls-1"
            d="m9.75,144.24h-.01c-.58,0-1.05-.49-1.04-1.07.36-28.15,13.26-66.29,13.39-66.67.19-.55.79-.85,1.34-.66.55.19.85.79.66,1.34-.13.38-12.92,38.21-13.28,66.02-.01.58-.48,1.04-1.06,1.04Z"/>
      <path class="cls-1"
            d="m170.05,29.45c-.13,0-.27-.02-.4-.08-.39-.16-38.86-15.62-61.57-8.05-.55.18-1.15-.12-1.33-.67-.18-.55.12-1.15.67-1.33,9.87-3.29,23.49-2.92,40.48,1.09,12.59,2.97,22.45,6.97,22.55,7,.54.22.8.83.58,1.38-.17.41-.57.65-.98.65Z"/>
      <path class="cls-1"
            d="m68.59,64.76c0,.42-.08.82-.24,1.21-.16.39-.39.73-.69,1.03-.3.3-.64.53-1.03.69-.39.16-.79.24-1.21.24-.42,0-.82-.08-1.21-.24-.39-.16-.73-.39-1.03-.69-.3-.3-.53-.64-.69-1.03-.16-.39-.24-.79-.24-1.21,0-.42.08-.82.24-1.21.16-.39.39-.73.69-1.03.3-.3.64-.53,1.03-.69.39-.16.79-.24,1.21-.24s.82.08,1.21.24c.39.16.73.39,1.03.69.3.3.53.64.69,1.03.16.39.24.79.24,1.21Z"/>
      <path class="cls-1"
            d="m25,91c-.27,0-.55-.11-.76-.32-.41-.42-.4-1.09.02-1.49,16.12-15.7,31.76-22.44,37.73-24.61,1.74-.63,2.72-.89,2.76-.9.56-.15,1.14.18,1.3.74.15.56-.18,1.14-.74,1.3-.01,0-.95.26-2.59.86-5.84,2.12-21.15,8.72-36.98,24.14-.21.2-.48.3-.74.3Z"/>
      <path class="cls-1"
            d="m149.64,295.2c-11.89,0-23.79-1.49-35.36-4.47-.56-.14-.9-.72-.76-1.28.14-.56.72-.9,1.28-.76,11.39,2.94,23,4.37,34.52,4.37,36.51,0,72.3-14.35,98.62-40.68,34.64-34.64,48.55-85.66,36.31-133.14-.14-.56.19-1.14.76-1.28.57-.14,1.14.19,1.28.76,6.02,23.37,5.96,48.05-.17,71.39-6.32,24.04-19.01,46.1-36.69,63.78-17.68,17.68-39.73,30.37-63.78,36.69-11.78,3.1-23.9,4.65-36.03,4.65Z"/>
      <path class="cls-1"
            d="m216.41,280.14c-2.43,1.67-4.88,3.15-7.09,4.46-13.86,8.17-28.48,15.18-43.54,20.91,13.58-1.47,26.55-6.1,37.12-13.33,5.03-3.44,9.55-7.47,13.51-12.03Zm-57.92,27.96c-.51,0-.95-.36-1.04-.87-.09-.51.2-1.01.69-1.19,17.38-6.09,34.25-13.92,50.1-23.27,3.28-1.93,7.1-4.27,10.52-6.99,1.06-.84,2.01-1.66,2.91-2.5.39-.37,1-.38,1.4-.03s.49.95.19,1.39c-.68,1-1.39,2-2.12,2.97-4.75,6.32-10.49,11.8-17.06,16.29-12.79,8.75-28.98,13.79-45.58,14.18,0,0-.01,0-.02,0Z"/>
      <path class="cls-1"
            d="m150.13,279.71c12.69,5.04,26.32,7,39.06,5.53,5.97-.69,11.91-2.16,17.53-4.33-2.81.33-5.61.5-8.32.63-16.08.75-32.27.14-48.26-1.83Zm30.7,8.12c-12.87,0-26.2-3.17-38.33-9.22-.46-.23-.69-.77-.54-1.26s.65-.8,1.17-.73c18.2,2.72,36.77,3.67,55.17,2.81,5.28-.25,10.89-.67,16.19-2.09.4-.21.8-.43,1.19-.65.51-.29,1.15-.11,1.44.4s.11,1.15-.4,1.44c-.44.25-.88.49-1.32.73-.01,0-.02.01-.04.02-7.93,4.25-16.89,7.04-25.92,8.08-2.83.32-5.71.49-8.6.49Z"/>
      <path class="cls-1"
            d="m150.18,301.99c0,.42-.08.82-.24,1.21-.16.39-.39.73-.69,1.03-.3.3-.64.53-1.03.69-.39.16-.79.24-1.21.24-.42,0-.82-.08-1.21-.24s-.73-.39-1.03-.69c-.3-.3-.53-.64-.69-1.03s-.24-.79-.24-1.21.08-.82.24-1.21c.16-.39.39-.73.69-1.03.3-.3.64-.53,1.03-.69.39-.16.79-.24,1.21-.24s.82.08,1.21.24c.39.16.73.39,1.03.69.3.3.53.64.69,1.03.16.39.24.79.24,1.21Z"/>
      <path class="cls-1"
            d="m117.21,289.84c0,.42-.08.82-.24,1.21-.16.39-.39.73-.69,1.03s-.64.53-1.03.69c-.39.16-.79.24-1.21.24-.42,0-.82-.08-1.21-.24-.39-.16-.73-.39-1.03-.69-.3-.3-.53-.64-.69-1.03-.16-.39-.24-.79-.24-1.21,0-.42.08-.82.24-1.21.16-.39.39-.73.69-1.03.3-.3.64-.53,1.03-.69.39-.16.79-.24,1.21-.24s.82.08,1.21.24c.39.16.73.39,1.03.69.3.3.53.64.69,1.03.16.39.24.79.24,1.21Z"/>
      <path class="cls-1"
            d="m132.14,279.39c0,.42-.08.82-.24,1.21-.16.39-.39.73-.69,1.03-.3.3-.64.53-1.03.69-.39.16-.79.24-1.21.24-.42,0-.82-.08-1.21-.24-.39-.16-.73-.39-1.03-.69-.3-.3-.53-.64-.69-1.03-.16-.39-.24-.79-.24-1.21,0-.42.08-.82.24-1.21.16-.39.39-.73.69-1.03.3-.3.64-.53,1.03-.69.39-.16.79-.24,1.21-.24s.82.08,1.21.24c.39.16.73.39,1.03.69.3.3.53.64.69,1.03.16.39.24.79.24,1.21Z"/>
      <path class="cls-1"
            d="m280.42,96.26c0,.42-.08.82-.24,1.21-.16.39-.39.73-.69,1.03s-.64.53-1.03.69-.79.24-1.21.24c-.42,0-.82-.08-1.21-.24-.39-.16-.73-.39-1.03-.69-.3-.3-.53-.64-.69-1.03-.16-.39-.24-.79-.24-1.21s.08-.82.24-1.21.39-.73.69-1.03c.3-.3.64-.53,1.03-.69.39-.16.79-.24,1.21-.24s.82.08,1.21.24.73.39,1.03.69c.3.3.53.64.69,1.03.16.39.24.79.24,1.21Z"/>
      <path class="cls-1"
            d="m261.11,65.2c0,.42-.08.82-.24,1.21-.16.39-.39.73-.69,1.03-.3.3-.64.53-1.03.69-.39.16-.79.24-1.21.24s-.82-.08-1.21-.24-.73-.39-1.03-.69c-.3-.3-.53-.64-.69-1.03s-.24-.79-.24-1.21c0-.42.08-.82.24-1.21s.39-.73.69-1.03c.3-.3.64-.53,1.03-.69.39-.16.79-.24,1.21-.24s.82.08,1.21.24c.39.16.73.39,1.03.69s.53.64.69,1.03c.16.39.24.79.24,1.21Z"/>
      <path class="cls-1"
            d="m234.42,40.2c0,.42-.08.82-.24,1.21-.16.39-.39.73-.69,1.03-.3.3-.64.53-1.03.69-.39.16-.79.24-1.21.24s-.82-.08-1.21-.24c-.39-.16-.73-.39-1.03-.69-.3-.3-.53-.64-.69-1.03-.16-.39-.24-.79-.24-1.21s.08-.82.24-1.21c.16-.39.39-.73.69-1.03.3-.3.64-.53,1.03-.69s.79-.24,1.21-.24.82.08,1.21.24.73.39,1.03.69c.3.3.53.64.69,1.03.16.39.24.79.24,1.21Z"/>
      <path class="cls-1"
            d="m146.05,303.3c-.49,0-.94-.35-1.03-.85-.11-.57.26-1.13.83-1.24.39-.08,39.55-7.92,63.81-21.51.51-.29,1.15-.1,1.44.4.29.51.1,1.15-.4,1.44-24.55,13.76-64.04,21.66-64.44,21.74-.07.01-.13.02-.2.02Z"/>
      <path class="cls-1"
            d="m270.5,229.86c-1.27,2.66-2.65,5.17-3.91,7.41-7.92,14.01-17.07,27.39-27.25,39.88,11.03-8.06,19.94-18.55,25.48-30.11,2.64-5.49,4.54-11.25,5.68-17.17Zm-36.71,53.31c-.3,0-.6-.13-.81-.37-.34-.4-.33-.98,0-1.37,12.01-13.97,22.7-29.18,31.76-45.2,1.88-3.31,4.01-7.25,5.61-11.31.5-1.26.92-2.44,1.27-3.61.16-.51.68-.83,1.2-.73.53.1.9.58.86,1.11-.08,1.21-.2,2.43-.35,3.63-.95,7.85-3.19,15.47-6.63,22.64-6.71,13.98-18.2,26.43-32.38,35.07-.17.11-.36.15-.55.15Z"/>
      <path class="cls-1"
            d="m262.49,235.38c-2.27,1.69-4.61,3.24-6.9,4.71-13.55,8.69-27.88,16.26-42.71,22.55,13.51-1.98,26.29-7.1,36.59-14.74,4.83-3.58,9.24-7.83,13.01-12.52Zm-56.83,30.12c-.49,0-.92-.34-1.03-.83-.11-.51.16-1.02.64-1.21,17.13-6.74,33.67-15.21,49.18-25.15,4.45-2.85,9.1-6.03,12.97-9.91.24-.38.47-.77.7-1.16.3-.5.94-.67,1.45-.38.5.3.67.94.38,1.45-.25.43-.51.86-.78,1.29,0,.01-.01.02-.02.04-4.74,7.64-11.11,14.54-18.41,19.96-12.46,9.24-28.44,14.89-45.01,15.91-.02,0-.04,0-.06,0Z"/>
      <path class="cls-1"
            d="m224.49,283.49c0,.42-.08.82-.24,1.21-.16.39-.39.73-.69,1.03-.3.3-.64.53-1.03.69-.39.16-.79.24-1.21.24-.42,0-.82-.08-1.21-.24-.39-.16-.73-.39-1.03-.69-.3-.3-.53-.64-.69-1.03-.16-.39-.24-.79-.24-1.21s.08-.82.24-1.21c.16-.39.39-.73.69-1.03.3-.3.64-.53,1.03-.69.39-.16.79-.24,1.21-.24s.82.08,1.21.24c.39.16.73.39,1.03.69.3.3.53.64.69,1.03.16.39.24.79.24,1.21Z"/>
      <path class="cls-1"
            d="m220.63,285.24c-.3,0-.59-.12-.8-.36-.38-.44-.34-1.11.1-1.49.3-.26,30.3-26.63,44.51-50.53.3-.5.95-.67,1.45-.37.5.3.67.95.37,1.45-14.39,24.19-44.63,50.78-44.93,51.04-.2.18-.45.26-.7.26Z"/>
      <path class="cls-1"
            d="m292.21,159.28c.23,2.94.29,5.8.31,8.37.14,16.09-1.09,32.25-3.66,48.16,5.52-12.5,7.99-26.04,7.02-38.82-.46-6.07-1.69-12.01-3.67-17.71Zm-5.66,64.67c-.12,0-.24-.02-.36-.06-.49-.18-.78-.68-.68-1.19,3.42-18.1,5.07-36.61,4.9-55.03-.03-3.81-.15-8.28-.79-12.6-.2-1.34-.43-2.57-.7-3.77-.12-.52.17-1.05.68-1.23s1.07.05,1.3.53c.53,1.09,1.04,2.2,1.51,3.32,3.1,7.28,4.98,14.99,5.58,22.92,1.18,15.46-2.55,32-10.51,46.56-.19.35-.55.55-.93.55Z"/>
      <path class="cls-1"
            d="m288.03,168.06c-1.12,2.6-2.37,5.11-3.62,7.52-7.38,14.3-16.02,28.03-25.71,40.88,10.71-8.47,19.22-19.3,24.32-31.06,2.39-5.51,4.09-11.39,5.01-17.34Zm-34.68,54.64c-.29,0-.57-.12-.78-.34-.35-.38-.37-.96-.05-1.37,11.46-14.4,21.56-30,30.01-46.37,2.43-4.7,4.86-9.77,6.28-15.07.01-.45.02-.9.03-1.36,0-.58.48-1.05,1.06-1.05h0c.58,0,1.05.48,1.05,1.06,0,.5-.01,1.01-.03,1.51v.04c-.29,8.99-2.35,18.15-5.97,26.49-6.17,14.23-17.19,27.11-31.02,36.28-.18.12-.38.18-.59.18Z"/>
      <path class="cls-1"
            d="m279.6,230.31c0,.42-.08.82-.24,1.21-.16.39-.39.73-.69,1.03-.3.3-.64.53-1.03.69-.39.16-.79.24-1.21.24s-.82-.08-1.21-.24c-.39-.16-.73-.39-1.03-.69s-.53-.64-.69-1.03c-.16-.39-.24-.79-.24-1.21,0-.42.08-.82.24-1.21.16-.39.39-.73.69-1.03.3-.3.64-.53,1.03-.69.39-.16.79-.24,1.21-.24s.82.08,1.21.24c.39.16.73.39,1.03.69.3.3.53.64.69,1.03.16.39.24.79.24,1.21Z"/>
      <path class="cls-1"
            d="m276.18,232.31c-.11,0-.23-.02-.34-.06-.55-.19-.85-.79-.66-1.34.13-.38,12.92-38.21,13.28-66.02,0-.58.48-1.06,1.07-1.04.58,0,1.05.49,1.04,1.07-.36,28.15-13.26,66.29-13.39,66.67-.15.44-.56.71-1,.71Z"/>
      <path class="cls-1"
            d="m176.27,291c-7.24,0-15.57-1.11-24.91-3.32-12.59-2.97-22.45-6.97-22.55-7-.54-.22-.8-.83-.58-1.38.22-.54.84-.8,1.38-.58.39.16,38.86,15.62,61.57,8.05.55-.18,1.15.12,1.33.67.18.55-.12,1.15-.67,1.33-4.44,1.48-9.64,2.22-15.57,2.22Z"/>
      <path class="cls-1"
            d="m237.01,243.34c0,.42-.08.82-.24,1.21s-.39.73-.69,1.03c-.3.3-.64.53-1.03.69-.39.16-.79.24-1.21.24-.42,0-.82-.08-1.21-.24-.39-.16-.73-.39-1.03-.69-.3-.3-.53-.64-.69-1.03-.16-.39-.24-.79-.24-1.21,0-.42.08-.82.24-1.21s.39-.73.69-1.03c.3-.3.64-.53,1.03-.69.39-.16.79-.24,1.21-.24s.82.08,1.21.24c.39.16.73.39,1.03.69s.53.64.69,1.03.24.79.24,1.21Z"/>
      <path class="cls-1"
            d="m234.22,244.46c-.46,0-.89-.31-1.02-.78-.15-.56.18-1.14.74-1.3.01,0,.95-.26,2.59-.86,5.84-2.12,21.15-8.72,36.98-24.14.42-.41,1.09-.4,1.49.02.41.42.4,1.09-.02,1.49-16.12,15.7-31.76,22.44-37.73,24.61-1.74.63-2.72.89-2.76.9-.09.03-.18.04-.27.04Z"/>
    </g>
    <text class="cls-3" transform="translate(70.83 158.55)">
      <tspan x="0" y="0">V</tspan>
    </text>
    <text class="cls-3" transform="translate(88.56 158.55)">
      <tspan x="0" y="0">E</tspan>
    </text>
    <text class="cls-3" transform="translate(105.23 158.55)">
      <tspan x="0" y="0">R</tspan>
    </text>
    <text class="cls-3" transform="translate(123.62 158.55)">
      <tspan x="0" y="0">B</tspan>
    </text>
    <text class="cls-3" transform="translate(140.68 158.55)">
      <tspan x="0" y="0">A</tspan>
    </text>
    <text class="cls-3" transform="translate(159.18 158.55)">
      <tspan x="0" y="0">C</tspan>
    </text>
    <text class="cls-3" transform="translate(176.79 158.55)">
      <tspan x="0" y="0">X</tspan>
    </text>
    <text class="cls-3" transform="translate(195.18 158.55)">
      <tspan x="0" y="0">S</tspan>
    </text>
    <text class="cls-3" transform="translate(211.68 158.55)">
      <tspan x="0" y="0">S</tspan>
    </text>
  </g>
</svg>
